<svg xmlns="http://www.w3.org/2000/svg" width="1024" height="1024" fill="none" viewBox="0 0 1024 1024"><rect width="1024" height="1024" fill="#0b0b0b" rx="512"/><g filter="url(#a)"><path fill="#f5f5f5" d="M731.676 832 496.721 558.126c-7.784 18.162-40.072 63.135-108.108 96.577L225.73 751.279c-32.577 10.667-104.361 21.91-129.73-17.297l11.532-196.036c57.945 28.252 175.855 84.18 184.792 80.721 8.937-43.244 12.108-96.865 4.036-161.442-7.207-58.234-17.874-177.297-2.883-188.829L508.252 192h1.153c4.613.577 14.991 6.919 27.676 30.27 50.451 88.505 166.342 279.352 226.306 335.856l164.325 191.712z"/></g><path stroke="#d9d9d9" stroke-width=".18" d="M121.112 214.901c1.531-2.522 1.333-15.531.793-22.882h-.072"/><defs><filter id="a" width="851.712" height="660" x="86" y="182" color-interpolation-filters="sRGB" filterUnits="userSpaceOnUse"><feFlood flood-opacity="0" result="BackgroundImageFix"/><feColorMatrix in="SourceAlpha" result="hardAlpha" values="0 0 0 0 0 0 0 0 0 0 0 0 0 0 0 0 0 0 127 0"/><feOffset/><feGaussianBlur stdDeviation="5"/><feComposite in2="hardAlpha" operator="out"/><feColorMatrix values="0 0 0 0 1 0 0 0 0 1 0 0 0 0 1 0 0 0 1 0"/><feBlend in2="BackgroundImageFix" result="effect1_dropShadow_78_211"/><feBlend in="SourceGraphic" in2="effect1_dropShadow_78_211" result="shape"/></filter></defs></svg>