<svg xmlns="http://www.w3.org/2000/svg" width="402" height="338" fill="none" viewBox="0 0 402 338"><g clip-path="url(#a)"><path fill="#fabf09" d="M316.444 336.713 193.109 192.948c-4.086 9.534-21.035 33.142-56.75 50.696l-85.502 50.697c-17.1 5.599-54.782 11.501-68.1-9.08l6.054-102.906c30.418 14.831 92.312 44.189 97.003 42.373 4.692-22.7 6.356-50.847 2.12-84.746-3.784-30.569-9.383-93.069-1.514-99.122L199.162.757h.605c2.422.303 7.869 3.632 14.528 15.89 26.483 46.459 87.318 146.64 118.795 176.301l86.259 100.636z"/><path stroke="#0b0b0b" stroke-width="1.513" d="m193.109 192.948 123.335 143.765 102.905-43.129-86.259-100.636c-31.477-29.661-92.312-129.842-118.795-176.301C207.636 4.389 202.037 1.06 199.767.757m-6.658 192.191c12.863-21.186 11.198-130.447 6.658-192.19m-6.658 192.19c-4.086 9.534-21.035 33.142-56.75 50.696l-85.502 50.697M199.767.757h-.605L86.42 40.86c-7.87 6.053-2.27 68.553 1.513 99.122 4.237 33.899 2.573 62.046-2.119 84.746m-34.957 69.613c-17.1 5.599-54.782 11.501-68.1-9.08l6.054-102.906c30.418 14.831 92.312 44.189 97.003 42.373m-34.957 69.613c10.744-8.475 27.088-31.326 34.957-69.613M4.7 298.727l2.573-37.833m30.269 2.122-2.421 35.109m-24.367.906 2.573-37.682m30.268 1.969-2.421 33.595m-24.367 2.573 2.573-37.682m30.114 1.969-2.119 31.628m-24.515 4.538 2.573-37.833"/><path stroke="#0b0b0b" stroke-width="1.513" d="m55.546 264.228-1.816 27.694v.756m-24.515 7.562 4.54-68.099M202.191 62.803l-37.682 1.665m36.468-31.778-37.833 1.514m38.891 22.546-37.833 1.664m36.476-31.777-37.682 1.514m38.737 22.546L163.9 52.36m36.621-31.776-37.832 1.513m38.745 22.546-37.681 1.665M200.22 14.53l-37.833 1.514m38.891 22.546-75.666 3.178m77.487 77.784h-37.833m37.833-30.266h-37.833m37.833 24.213h-37.833m37.833-30.266h-37.833m37.833 24.213h-37.833m37.833-30.266h-37.833m37.833 24.213h-37.833m37.833-30.267h-37.833m37.833 24.214h-75.666m71.124 79.752-34.201-.605m38.288-29.661-37.833-.605m34.656 24.818-34.958-.605m38.135-29.661-37.833-.606m35.413 24.819-35.715-.605m38.282-29.661-37.832-.606m35.866 24.819-36.168-.606m38.134-29.661-37.832-.605m36.32 24.817-74.455-1.059m63.866 47.822-30.721-.454m37.83.603h-.606m-37.224-6.656 33.899.605m2.266-6.053-36.017-.606m37.833-5.448-37.833-.605m26.636 24.666-64.77-.908m38.592 26.333-.606-.152m8.172-5.901-8.172-.152m14.827-5.75-14.679-.303m20.43-5.751-20.43-.302m87.016 44.793 29.207-24.062m-9.989 47.364 29.207-24.061m-44.642 5.301 29.207-23.91m-9.989 47.364 29.207-24.062m-44.488 5.296 29.207-23.911m-9.989 47.371 29.207-24.062m-44.642 5.295 29.207-23.91m-9.989 47.364 29.207-24.061m-44.641 5.297 58.565-47.972m-37.533 71.125 28.753-24.667m-9.079 47.668 28.753-24.667m-44.49 6.208 28.753-24.515m-9.079 47.517 28.753-24.516M291.32 306.6l28.754-24.667m-9.08 47.668 28.753-24.667m-44.489 6.202 28.753-24.516m-9.08 47.523 28.753-24.516m-44.49 6.205 57.507-49.334M212.327 214.74l29.207-24.062m-9.989 47.365 29.207-24.062m-44.642 5.301 29.207-23.91m-9.989 47.364 29.207-24.061m-44.488 5.295 29.207-23.91m-9.989 47.37 29.207-24.062m-44.642 5.296 29.207-23.911m-9.989 47.365 29.207-24.062m-44.642 5.298 58.566-47.972m-89.441 11.801 29.207-24.061m-13.467-20.277-12.258 10.14m.302 38.892 29.207-24.062m-13.469-20.276-17.252 14.225m5.451 34.807 29.207-24.062m-13.468-20.282-22.851 18.916m-5.447 4.392-.908.757m17.25 24.966 29.207-24.061m-44.494 5.297 58.414-47.972"/><path fill="#0b0b0b" d="m334.906 214.742-9.685 8.626 3.027.606-.606 2.118-5.447-1.21-1.211-1.211 12.106-10.896zm-30.267-38.892-1.665 1.514h-8.323c-.908 0-1.665 0-2.27.151s-1.059.454-1.513.757c-.303.302-.606.605-.606 1.059-.151.454-.151.757-.151 1.211.151.454.303.908.605 1.21.303.454.757.606 1.06.757.302.151.756.151 1.21.151s.757-.151 1.06-.302l.756 2.269a2.8 2.8 0 0 1-1.21.303 2.6 2.6 0 0 1-1.514 0c-.605 0-1.059-.303-1.664-.454-.606-.303-1.06-.757-1.514-1.211-.756-.756-1.059-1.513-1.21-2.421s-.151-1.664.151-2.421c.303-.757.605-1.362 1.211-1.967.454-.454 1.059-.757 1.664-1.06.606-.151 1.362-.454 1.968-.454.605-.151 1.362-.151 1.967-.151h6.053l-4.54-5.145 1.665-1.514zm-37.982-44.948c.454.606.908 1.211 1.211 1.816.302.757.302 1.514.302 2.27 0 .757-.302 1.665-.908 2.422l-2.27-1.06c.454-.756.757-1.513.757-2.118 0-.757-.303-1.362-.757-1.816a3.3 3.3 0 0 0-1.21-.757c-.454-.151-.908-.151-1.362-.151s-.908.302-1.362.605-.606.757-.757 1.211-.151.908 0 1.513c.151.454.454.908.757 1.362l.908 1.059-1.665 1.514-.757-.908a4.6 4.6 0 0 0-1.059-.757c-.454-.151-.908-.151-1.362-.151s-.908.302-1.211.605c-.302.303-.605.605-.756 1.059s-.152.757 0 1.211c.151.454.302.757.605 1.211s.757.605 1.059.756c.454.152.757.152 1.211 0 .303 0 .757-.151 1.059-.302l.757 2.27c-.454.151-1.059.302-1.665.454-.605 0-1.362 0-2.118-.303-.757-.303-1.362-.757-1.968-1.362-.605-.757-1.059-1.513-1.21-2.27a5.7 5.7 0 0 1 0-2.27c.151-.757.605-1.362 1.21-1.967q.681-.681 1.362-.908c.454-.152.908-.303 1.362-.303s.908.151 1.211.303l.151-.152c-.151-.454-.302-1.059-.302-1.513 0-.605.151-1.059.454-1.665.151-.454.605-1.059 1.059-1.513.757-.605 1.513-1.059 2.27-1.211.908-.151 1.665-.151 2.573.152.908.454 1.816.908 2.421 1.664m-148.61-87.165c.152 1.06 0 1.967-.302 2.875-.303.908-.757 1.665-1.514 2.119-.605.605-1.362.908-2.27 1.059-.605.151-1.21 0-1.816-.151-.605-.152-1.059-.454-1.513-.757s-.757-.757-1.059-1.06h-.152c-.151.455-.454.757-.756 1.06-.303.303-.606.605-1.06.908l-1.362.454c-.908.151-1.664 0-2.421-.303-.757-.302-1.362-.756-1.816-1.513-.454-.605-.757-1.513-.908-2.421s0-1.816.303-2.573c.302-.757.756-1.513 1.362-1.967.605-.454 1.362-.908 2.27-.908.454 0 .908 0 1.362.151l1.362.454c.454.303.756.454 1.059.908h.151c.152-.454.454-.908.757-1.362s.757-.757 1.211-1.06c.454-.302 1.059-.453 1.664-.605.908-.15 1.665 0 2.573.303a4.2 4.2 0 0 1 1.967 1.665q.681 1.135.908 2.724m-2.27.302c-.151-.605-.302-1.059-.605-1.362-.303-.454-.605-.756-1.059-.907s-.908-.303-1.514-.152c-.454 0-.908.303-1.362.605a3.3 3.3 0 0 0-.756 1.211c-.152.454-.152.908-.152 1.513.152.606.303 1.06.606 1.362.302.454.605.757 1.059.908s.908.303 1.362.152c.454 0 .908-.303 1.362-.606a3.3 3.3 0 0 0 .757-1.21c.302-.454.302-1.06.302-1.514m-7.566 1.06c-.152-.757-.454-1.21-.908-1.665q-.909-.68-1.816-.454c-.757.151-1.211.454-1.665.908q-.454.907-.454 1.816c.151.757.454 1.21.908 1.665q.68.68 1.816.454c.454 0 .908-.303 1.211-.454.302-.303.605-.606.756-1.06.152-.302.152-.756.152-1.21m9.987 50.843-1.059 2.12c-.605-.304-1.059-.606-1.665-.758-.605-.302-1.059-.454-1.513-.756-.454-.303-.908-.454-1.362-.757-.454-.151-.757-.454-1.211-.605l-.151.151c.151.151.151.303.303.605.151.303.151.606.151.908.151.757 0 1.665-.303 2.422-.302.756-.908 1.513-1.513 2.118-.757.606-1.513.908-2.573 1.06-1.059.151-1.967 0-2.875-.303-.908-.454-1.665-.908-2.119-1.665-.605-.756-.908-1.664-1.059-2.572s0-1.665.151-2.422c.152-.756.606-1.362 1.06-1.967s.908-.908 1.513-1.362c.605-.303 1.211-.605 1.967-.605 1.06-.151 1.968 0 2.724.151.908.303 1.816.605 2.724 1.06.757.302 1.362.605 2.119 1.059.757.302 1.513.756 2.27 1.06.757.302 1.513.756 2.421 1.058m-8.626.454c-.151-.605-.302-1.059-.605-1.513a2.36 2.36 0 0 0-1.211-.908c-.454-.151-1.059-.151-1.664-.151-.606.151-1.06.302-1.514.605a2.36 2.36 0 0 0-.908 1.21c-.151.455-.302 1.06-.151 1.514.151.605.303 1.06.605 1.513.303.454.757.757 1.211.908s1.059.303 1.665.152c.605-.152 1.059-.303 1.513-.606.454-.302.757-.756.908-1.21s.303-.908.151-1.514m8.324 62.351-12.863 1.816 2.118 2.27-1.664 1.514-3.784-3.935-.302-1.665 16.041-2.27zm-1.513-12.56c.151.908 0 1.816-.303 2.724a6.6 6.6 0 0 1-1.513 2.27c-.757.605-1.514 1.21-2.422 1.664s-2.118.757-3.178.908c-1.21.152-2.27.152-3.329 0a9.1 9.1 0 0 1-2.875-.908c-.908-.454-1.514-1.059-2.119-1.664-.605-.757-.908-1.513-1.06-2.573-.15-.908 0-1.816.303-2.724s.757-1.664 1.514-2.27c.756-.605 1.513-1.21 2.421-1.664s2.119-.757 3.178-.908c1.211-.152 2.27-.152 3.329 0a9.1 9.1 0 0 1 2.876.908c.756.454 1.513 1.059 2.118 1.816.606.605 1.06 1.362 1.06 2.421m-2.27.303c-.152-.757-.454-1.514-1.06-1.968-.605-.454-1.362-.908-2.421-1.059q-1.362-.227-3.178 0a8.9 8.9 0 0 0-3.027.908c-.908.454-1.513.908-1.967 1.665-.454.605-.605 1.362-.454 2.118.151.757.454 1.362 1.059 1.967.606.454 1.362.908 2.422 1.06q1.362.227 3.178 0a8.9 8.9 0 0 0 3.026-.908 5.46 5.46 0 0 0 1.968-1.665c.454-.605.605-1.362.454-2.118m3.482 62.346-12.863 1.816 2.119 2.27-1.665 1.513-3.783-3.935-.303-1.664 16.041-2.27zm-1.362-9.988-12.863 1.816 2.119 2.27-1.665 1.513-3.783-3.934-.303-1.665 16.041-2.27zm-90.041 29.513 1.362-12.863-2.724 1.513-1.06-1.967 4.843-2.724 1.665.151-1.665 16.193zm11.804 1.513c-.757 0-1.513-.302-2.119-.605-.756-.454-1.362-.908-1.816-1.665a6.5 6.5 0 0 1-.908-2.572l2.27-.605a4.5 4.5 0 0 0 .908 2.118c.454.605 1.211.908 1.968 1.059.908.152 1.664-.151 2.27-.605a2.65 2.65 0 0 0 1.059-2.118c0-.606 0-1.06-.151-1.665a2.36 2.36 0 0 0-.908-1.211c-.454-.302-.908-.454-1.514-.605-.454 0-1.059 0-1.513.151a3.3 3.3 0 0 0-1.21.757l-2.27-1.211 1.815-8.172 8.324.908-.152 2.27-6.356-.605-1.059 4.54h.151c.303-.303.757-.454 1.211-.605.454-.152 1.06-.152 1.665-.152a6.7 6.7 0 0 1 2.421.908c.757.454 1.21 1.211 1.665 2.119.454.908.454 1.816.454 2.875q-.227 1.589-.908 2.724c-.606.757-1.211 1.362-2.119 1.665-1.21.302-2.119.454-3.178.302"/><path fill="url(#b)" stroke="#0b0b0b" stroke-width="1.513" d="m315.688 335.657-23.456-26.332c-.454-17.857 21.489-20.127 29.964-19.522 4.086-11.199 27.391-16.041 34.957-15.436 15.436-14.225 31.931-11.047 38.287-7.566l23.456 26.331z"/><g filter="url(#c)"><path fill="#fff" d="M313.116 308.261a6.053 6.053 0 1 0 0-12.106 6.053 6.053 0 0 0 0 12.106"/></g><g filter="url(#d)"><path fill="#fff" d="M378.489 280.264a6.053 6.053 0 1 0 0-12.106 6.053 6.053 0 0 0 0 12.106"/></g><path fill="#fabf09" stroke="#fff" stroke-width=".757" d="m347.167 294.191 12.258-6.204c3.783-1.816 8.172-.303 10.139 3.329 1.816 3.783.303 8.172-3.329 10.139l-12.258 6.205c-3.783 1.816-8.172.303-10.139-3.329-1.968-3.784-.454-8.324 3.329-10.14Z"/></g><defs><filter id="c" width="20.107" height="20.107" x="303.063" y="292.154" color-interpolation-filters="sRGB" filterUnits="userSpaceOnUse"><feFlood flood-opacity="0" result="BackgroundImageFix"/><feColorMatrix in="SourceAlpha" result="hardAlpha" values="0 0 0 0 0 0 0 0 0 0 0 0 0 0 0 0 0 0 127 0"/><feOffset/><feGaussianBlur stdDeviation="2"/><feComposite in2="hardAlpha" operator="out"/><feColorMatrix values="0 0 0 0 1 0 0 0 0 1 0 0 0 0 1 0 0 0 0.25 0"/><feBlend in2="BackgroundImageFix" result="effect1_dropShadow_1_71"/><feBlend in="SourceGraphic" in2="BackgroundImageFix" result="shape"/><feTurbulence baseFrequency="2 2" numOctaves="3" result="noise" seed="4114" stitchTiles="stitch" type="fractalNoise"/><feColorMatrix in="noise" result="alphaNoise" type="luminanceToAlpha"/><feComponentTransfer in="alphaNoise" result="coloredNoise1"><feFuncA tableValues="1 1 1 1 1 1 1 1 1 1 1 1 1 1 1 1 1 1 1 1 1 1 1 1 1 1 1 1 1 1 1 1 1 1 1 1 1 1 1 1 1 1 1 1 1 1 1 1 1 1 1 0 0 0 0 0 0 0 0 0 0 0 0 0 0 0 0 0 0 0 0 0 0 0 0 0 0 0 0 0 0 0 0 0 0 0 0 0 0 0 0 0 0 0 0 0 0 0 0 0" type="discrete"/></feComponentTransfer><feComposite in="coloredNoise1" in2="shape" operator="in" result="noise1Clipped"/><feFlood flood-color="rgba(0, 0, 0, 0.15)" result="color1Flood"/><feComposite in="color1Flood" in2="noise1Clipped" operator="in" result="color1"/><feMerge result="effect2_noise_1_71"><feMergeNode in="shape"/><feMergeNode in="color1"/></feMerge><feBlend in="effect2_noise_1_71" in2="effect1_dropShadow_1_71" result="effect2_noise_1_71"/><feGaussianBlur result="effect3_foregroundBlur_1_71" stdDeviation=".25"/></filter><filter id="d" width="20.107" height="20.107" x="368.436" y="264.158" color-interpolation-filters="sRGB" filterUnits="userSpaceOnUse"><feFlood flood-opacity="0" result="BackgroundImageFix"/><feColorMatrix in="SourceAlpha" result="hardAlpha" values="0 0 0 0 0 0 0 0 0 0 0 0 0 0 0 0 0 0 127 0"/><feOffset/><feGaussianBlur stdDeviation="2"/><feComposite in2="hardAlpha" operator="out"/><feColorMatrix values="0 0 0 0 1 0 0 0 0 1 0 0 0 0 1 0 0 0 0.25 0"/><feBlend in2="BackgroundImageFix" result="effect1_dropShadow_1_71"/><feBlend in="SourceGraphic" in2="BackgroundImageFix" result="shape"/><feTurbulence baseFrequency="2 2" numOctaves="3" result="noise" seed="4114" stitchTiles="stitch" type="fractalNoise"/><feColorMatrix in="noise" result="alphaNoise" type="luminanceToAlpha"/><feComponentTransfer in="alphaNoise" result="coloredNoise1"><feFuncA tableValues="1 1 1 1 1 1 1 1 1 1 1 1 1 1 1 1 1 1 1 1 1 1 1 1 1 1 1 1 1 1 1 1 1 1 1 1 1 1 1 1 1 1 1 1 1 1 1 1 1 1 1 0 0 0 0 0 0 0 0 0 0 0 0 0 0 0 0 0 0 0 0 0 0 0 0 0 0 0 0 0 0 0 0 0 0 0 0 0 0 0 0 0 0 0 0 0 0 0 0 0" type="discrete"/></feComponentTransfer><feComposite in="coloredNoise1" in2="shape" operator="in" result="noise1Clipped"/><feFlood flood-color="rgba(0, 0, 0, 0.15)" result="color1Flood"/><feComposite in="color1Flood" in2="noise1Clipped" operator="in" result="color1"/><feMerge result="effect2_noise_1_71"><feMergeNode in="shape"/><feMergeNode in="color1"/></feMerge><feBlend in="effect2_noise_1_71" in2="effect1_dropShadow_1_71" result="effect2_noise_1_71"/><feGaussianBlur result="effect3_foregroundBlur_1_71" stdDeviation=".25"/></filter><linearGradient id="b" x1="345.369" x2="364.468" y1="274.995" y2="323.874" gradientUnits="userSpaceOnUse"><stop/><stop offset=".698" stop-color="#333"/><stop offset=".801" stop-color="#fff"/><stop offset="1" stop-color="#fff"/></linearGradient><clipPath id="a"><path fill="#fff" d="M-18 0h438.559v337.621H-18z"/></clipPath></defs></svg>