<svg width="402" height="338" viewBox="0 0 402 338" fill="none" xmlns="http://www.w3.org/2000/svg">
<g clip-path="url(#clip0_1_71)">
<path d="M316.444 336.713L193.109 192.948C189.023 202.482 172.074 226.09 136.359 243.644L50.8569 294.341C33.7564 299.94 -3.92518 305.842 -17.2424 285.261L-11.1891 182.355C19.2286 197.186 81.1232 226.544 85.8145 224.728C90.5058 202.028 92.1704 173.881 87.9331 139.982C84.1498 109.413 78.5506 46.9133 86.4198 40.86L199.162 0.757141C199.313 0.757141 199.465 0.757141 199.767 0.757141C202.189 1.0598 207.636 4.3891 214.295 16.647C240.778 63.1058 301.613 163.287 333.09 192.948L419.349 293.584L316.444 336.713Z" fill="#FABF09"/>
<path d="M193.109 192.948L316.444 336.713L419.349 293.584L333.09 192.948C301.613 163.287 240.778 63.1058 214.295 16.647C207.636 4.3891 202.037 1.0598 199.767 0.757141M193.109 192.948C205.972 171.762 204.307 62.5005 199.767 0.757141M193.109 192.948C189.023 202.482 172.074 226.09 136.359 243.644L50.8569 294.341M199.767 0.757141C199.616 0.757141 199.465 0.757141 199.162 0.757141L86.4198 40.86C78.5506 46.9133 84.1498 109.413 87.9331 139.982C92.1704 173.881 90.5058 202.028 85.8145 224.728M50.8569 294.341C33.7564 299.94 -3.92518 305.842 -17.2424 285.261L-11.1891 182.355C19.2286 197.186 81.1232 226.544 85.8145 224.728M50.8569 294.341C61.6014 285.866 77.9452 263.015 85.8145 224.728" stroke="#0B0B0B" stroke-width="1.51332"/>
<path d="M4.70072 298.727L7.27336 260.894" stroke="#0B0B0B" stroke-width="1.51332"/>
<path d="M37.5421 263.016L35.1208 298.125" stroke="#0B0B0B" stroke-width="1.51332"/>
<path d="M10.754 299.031L13.3266 261.349" stroke="#0B0B0B" stroke-width="1.51332"/>
<path d="M43.5953 263.318L41.174 296.913" stroke="#0B0B0B" stroke-width="1.51332"/>
<path d="M16.8073 299.486L19.3799 261.804" stroke="#0B0B0B" stroke-width="1.51332"/>
<path d="M49.4937 263.773L47.3751 295.401" stroke="#0B0B0B" stroke-width="1.51332"/>
<path d="M22.8605 299.939L25.4332 262.106" stroke="#0B0B0B" stroke-width="1.51332"/>
<path d="M55.5458 264.228L53.7298 291.922V292.678" stroke="#0B0B0B" stroke-width="1.51332"/>
<path d="M29.2153 300.24L33.7552 232.141" stroke="#0B0B0B" stroke-width="1.51332"/>
<path d="M202.191 62.8031L164.509 64.4678" stroke="#0B0B0B" stroke-width="1.51332"/>
<path d="M200.977 32.6905L163.144 34.2038" stroke="#0B0B0B" stroke-width="1.51332"/>
<path d="M202.035 56.7498L164.202 58.4145" stroke="#0B0B0B" stroke-width="1.51332"/>
<path d="M200.678 26.6372L162.996 28.1505" stroke="#0B0B0B" stroke-width="1.51332"/>
<path d="M201.733 50.6966L163.9 52.3612" stroke="#0B0B0B" stroke-width="1.51332"/>
<path d="M200.521 20.584L162.689 22.0973" stroke="#0B0B0B" stroke-width="1.51332"/>
<path d="M201.434 44.6433L163.753 46.308" stroke="#0B0B0B" stroke-width="1.51332"/>
<path d="M200.22 14.5307L162.387 16.044" stroke="#0B0B0B" stroke-width="1.51332"/>
<path d="M201.278 38.5901L125.612 41.768" stroke="#0B0B0B" stroke-width="1.51332"/>
<path d="M203.099 119.552H165.266" stroke="#0B0B0B" stroke-width="1.51332"/>
<path d="M203.099 89.2862H165.266" stroke="#0B0B0B" stroke-width="1.51332"/>
<path d="M203.099 113.499H165.266" stroke="#0B0B0B" stroke-width="1.51332"/>
<path d="M203.099 83.2329H165.266" stroke="#0B0B0B" stroke-width="1.51332"/>
<path d="M203.099 107.446H165.266" stroke="#0B0B0B" stroke-width="1.51332"/>
<path d="M203.099 77.1796H165.266" stroke="#0B0B0B" stroke-width="1.51332"/>
<path d="M203.099 101.393H165.266" stroke="#0B0B0B" stroke-width="1.51332"/>
<path d="M203.099 71.1264H165.266" stroke="#0B0B0B" stroke-width="1.51332"/>
<path d="M203.099 95.3394H127.433" stroke="#0B0B0B" stroke-width="1.51332"/>
<path d="M198.557 175.092L164.356 174.487" stroke="#0B0B0B" stroke-width="1.51332"/>
<path d="M202.644 144.826L164.811 144.221" stroke="#0B0B0B" stroke-width="1.51332"/>
<path d="M199.467 169.039L164.509 168.434" stroke="#0B0B0B" stroke-width="1.51332"/>
<path d="M202.644 138.773L164.811 138.167" stroke="#0B0B0B" stroke-width="1.51332"/>
<path d="M200.224 162.986L164.509 162.381" stroke="#0B0B0B" stroke-width="1.51332"/>
<path d="M202.791 132.72L164.959 132.114" stroke="#0B0B0B" stroke-width="1.51332"/>
<path d="M200.825 156.933L164.657 156.327" stroke="#0B0B0B" stroke-width="1.51332"/>
<path d="M202.791 126.666L164.959 126.061" stroke="#0B0B0B" stroke-width="1.51332"/>
<path d="M201.279 150.878L126.824 149.819" stroke="#0B0B0B" stroke-width="1.51332"/>
<path d="M190.69 197.641L159.969 197.187" stroke="#0B0B0B" stroke-width="1.51332"/>
<path d="M197.799 197.79H197.193" stroke="#0B0B0B" stroke-width="1.51332"/>
<path d="M159.969 191.134L193.868 191.739" stroke="#0B0B0B" stroke-width="1.51332"/>
<path d="M196.134 185.686L160.117 185.08" stroke="#0B0B0B" stroke-width="1.51332"/>
<path d="M197.95 179.632L160.117 179.027" stroke="#0B0B0B" stroke-width="1.51332"/>
<path d="M186.753 203.693L121.983 202.785" stroke="#0B0B0B" stroke-width="1.51332"/>
<path d="M160.575 229.118L159.969 228.966" stroke="#0B0B0B" stroke-width="1.51332"/>
<path d="M168.141 223.065L159.969 222.913" stroke="#0B0B0B" stroke-width="1.51332"/>
<path d="M174.796 217.163L160.117 216.86" stroke="#0B0B0B" stroke-width="1.51332"/>
<path d="M180.547 211.109L160.117 210.807" stroke="#0B0B0B" stroke-width="1.51332"/>
<path d="M247.133 255.6L276.34 231.538" stroke="#0B0B0B" stroke-width="1.51332"/>
<path d="M266.351 278.902L295.558 254.841" stroke="#0B0B0B" stroke-width="1.51332"/>
<path d="M250.916 260.142L280.123 236.232" stroke="#0B0B0B" stroke-width="1.51332"/>
<path d="M270.134 283.596L299.341 259.534" stroke="#0B0B0B" stroke-width="1.51332"/>
<path d="M254.853 264.83L284.06 240.919" stroke="#0B0B0B" stroke-width="1.51332"/>
<path d="M274.071 288.29L303.278 264.228" stroke="#0B0B0B" stroke-width="1.51332"/>
<path d="M258.636 269.523L287.843 245.613" stroke="#0B0B0B" stroke-width="1.51332"/>
<path d="M277.854 292.977L307.061 268.916" stroke="#0B0B0B" stroke-width="1.51332"/>
<path d="M262.42 274.213L320.985 226.241" stroke="#0B0B0B" stroke-width="1.51332"/>
<path d="M283.452 297.366L312.205 272.699" stroke="#0B0B0B" stroke-width="1.51332"/>
<path d="M303.126 320.367L331.879 295.7" stroke="#0B0B0B" stroke-width="1.51332"/>
<path d="M287.389 301.908L316.142 277.393" stroke="#0B0B0B" stroke-width="1.51332"/>
<path d="M307.063 324.91L335.816 300.394" stroke="#0B0B0B" stroke-width="1.51332"/>
<path d="M291.32 306.6L320.074 281.933" stroke="#0B0B0B" stroke-width="1.51332"/>
<path d="M310.994 329.601L339.747 304.934" stroke="#0B0B0B" stroke-width="1.51332"/>
<path d="M295.258 311.136L324.011 286.62" stroke="#0B0B0B" stroke-width="1.51332"/>
<path d="M314.931 334.143L343.684 309.627" stroke="#0B0B0B" stroke-width="1.51332"/>
<path d="M299.194 315.832L356.701 266.498" stroke="#0B0B0B" stroke-width="1.51332"/>
<path d="M212.327 214.74L241.534 190.678" stroke="#0B0B0B" stroke-width="1.51332"/>
<path d="M231.545 238.043L260.752 213.981" stroke="#0B0B0B" stroke-width="1.51332"/>
<path d="M216.11 219.282L245.317 195.372" stroke="#0B0B0B" stroke-width="1.51332"/>
<path d="M235.328 242.736L264.535 218.675" stroke="#0B0B0B" stroke-width="1.51332"/>
<path d="M220.047 223.97L249.254 200.06" stroke="#0B0B0B" stroke-width="1.51332"/>
<path d="M239.265 247.43L268.472 223.368" stroke="#0B0B0B" stroke-width="1.51332"/>
<path d="M223.83 228.664L253.037 204.753" stroke="#0B0B0B" stroke-width="1.51332"/>
<path d="M243.048 252.118L272.255 228.056" stroke="#0B0B0B" stroke-width="1.51332"/>
<path d="M227.613 233.354L286.179 185.382" stroke="#0B0B0B" stroke-width="1.51332"/>
<path d="M196.738 197.183L225.945 173.122" stroke="#0B0B0B" stroke-width="1.51332"/>
<path d="M212.478 152.845L200.22 162.985" stroke="#0B0B0B" stroke-width="1.51332"/>
<path d="M200.522 201.877L229.729 177.815" stroke="#0B0B0B" stroke-width="1.51332"/>
<path d="M216.26 157.539L199.008 171.764" stroke="#0B0B0B" stroke-width="1.51332"/>
<path d="M204.459 206.571L233.666 182.509" stroke="#0B0B0B" stroke-width="1.51332"/>
<path d="M220.198 162.227L197.347 181.143" stroke="#0B0B0B" stroke-width="1.51332"/>
<path d="M191.9 185.535L190.992 186.292" stroke="#0B0B0B" stroke-width="1.51332"/>
<path d="M208.242 211.258L237.449 187.197" stroke="#0B0B0B" stroke-width="1.51332"/>
<path d="M192.955 192.494L251.369 144.522" stroke="#0B0B0B" stroke-width="1.51332"/>
<path d="M334.906 214.742L325.221 223.368L328.248 223.974L327.642 226.092L322.195 224.882L320.984 223.671L333.09 212.775L334.906 214.742Z" fill="#0B0B0B"/>
<path d="M304.639 175.85L302.974 177.364C302.974 177.364 302.672 177.364 302.369 177.364C302.066 177.364 301.612 177.364 301.007 177.364C300.402 177.364 299.948 177.364 299.342 177.364C298.737 177.364 298.132 177.364 297.526 177.364C296.921 177.364 296.316 177.364 295.862 177.364C295.408 177.364 294.954 177.364 294.651 177.364C293.743 177.364 292.986 177.364 292.381 177.515C291.776 177.666 291.322 177.969 290.868 178.272C290.565 178.574 290.262 178.877 290.262 179.331C290.111 179.785 290.111 180.088 290.111 180.542C290.262 180.996 290.414 181.45 290.716 181.752C291.019 182.206 291.473 182.358 291.776 182.509C292.078 182.66 292.532 182.66 292.986 182.66C293.44 182.66 293.743 182.509 294.046 182.358L294.802 184.627C294.5 184.779 294.046 184.93 293.592 184.93C293.138 185.081 292.532 185.081 292.078 184.93C291.473 184.93 291.019 184.627 290.414 184.476C289.808 184.173 289.354 183.719 288.9 183.265C288.144 182.509 287.841 181.752 287.69 180.844C287.538 179.936 287.539 179.18 287.841 178.423C288.144 177.666 288.446 177.061 289.052 176.456C289.506 176.002 290.111 175.699 290.716 175.396C291.322 175.245 292.078 174.942 292.684 174.942C293.289 174.791 294.046 174.791 294.651 174.791C294.954 174.791 295.256 174.791 295.71 174.791C296.164 174.791 296.618 174.791 297.224 174.791C297.678 174.791 298.132 174.791 298.737 174.791C299.191 174.791 299.645 174.791 299.948 174.791C300.25 174.791 300.553 174.791 300.704 174.791L296.164 169.646L297.829 168.132L304.639 175.85Z" fill="#0B0B0B"/>
<path d="M266.657 130.902C267.111 131.508 267.565 132.113 267.868 132.718C268.17 133.475 268.17 134.232 268.17 134.988C268.17 135.745 267.868 136.653 267.262 137.41L264.992 136.35C265.446 135.594 265.749 134.837 265.749 134.232C265.749 133.475 265.446 132.87 264.992 132.416C264.69 132.113 264.236 131.81 263.782 131.659C263.328 131.508 262.874 131.508 262.42 131.508C261.966 131.508 261.512 131.81 261.058 132.113C260.604 132.416 260.452 132.87 260.301 133.324C260.15 133.778 260.15 134.232 260.301 134.837C260.452 135.291 260.755 135.745 261.058 136.199L261.966 137.258L260.301 138.772L259.544 137.864C259.242 137.561 258.788 137.258 258.485 137.107C258.031 136.956 257.577 136.956 257.123 136.956C256.669 136.956 256.215 137.258 255.912 137.561C255.61 137.864 255.307 138.166 255.156 138.62C255.004 139.074 255.004 139.377 255.156 139.831C255.307 140.285 255.458 140.588 255.761 141.042C256.064 141.496 256.518 141.647 256.82 141.798C257.274 141.95 257.577 141.95 258.031 141.798C258.334 141.798 258.788 141.647 259.09 141.496L259.847 143.766C259.393 143.917 258.788 144.068 258.182 144.22C257.577 144.22 256.82 144.22 256.064 143.917C255.307 143.614 254.702 143.16 254.096 142.555C253.491 141.798 253.037 141.042 252.886 140.285C252.734 139.528 252.734 138.772 252.886 138.015C253.037 137.258 253.491 136.653 254.096 136.048C254.55 135.594 255.004 135.291 255.458 135.14C255.912 134.988 256.366 134.837 256.82 134.837C257.274 134.837 257.728 134.988 258.031 135.14L258.182 134.988C258.031 134.534 257.88 133.929 257.88 133.475C257.88 132.87 258.031 132.416 258.334 131.81C258.485 131.356 258.939 130.751 259.393 130.297C260.15 129.692 260.906 129.238 261.663 129.086C262.571 128.935 263.328 128.935 264.236 129.238C265.144 129.692 266.052 130.146 266.657 130.902Z" fill="#0B0B0B"/>
<path d="M118.047 43.7368C118.199 44.7961 118.047 45.7041 117.745 46.6121C117.442 47.5201 116.988 48.2767 116.231 48.7307C115.626 49.336 114.869 49.6387 113.961 49.79C113.356 49.9414 112.751 49.79 112.145 49.6387C111.54 49.4874 111.086 49.1847 110.632 48.882C110.178 48.5794 109.875 48.1254 109.573 47.8227H109.421C109.27 48.2767 108.967 48.5794 108.665 48.882C108.362 49.1847 108.059 49.4874 107.605 49.79C107.151 49.9414 106.697 50.0927 106.243 50.244C105.335 50.3954 104.579 50.244 103.822 49.9414C103.065 49.6387 102.46 49.1847 102.006 48.428C101.552 47.8227 101.249 46.9147 101.098 46.0067C100.947 45.0987 101.098 44.1908 101.401 43.4341C101.703 42.6774 102.157 41.9208 102.763 41.4668C103.368 41.0128 104.125 40.5588 105.033 40.5588C105.487 40.5588 105.941 40.5588 106.395 40.7101C106.849 40.8615 107.303 41.0128 107.757 41.1641C108.211 41.4668 108.513 41.6181 108.816 42.0721H108.967C109.119 41.6181 109.421 41.1641 109.724 40.7101C110.027 40.2561 110.481 39.9535 110.935 39.6508C111.389 39.3481 111.994 39.1968 112.599 39.0455C113.507 38.8942 114.264 39.0455 115.172 39.3481C115.929 39.6508 116.685 40.2561 117.139 41.0128C117.593 41.7695 117.896 42.6774 118.047 43.7368ZM115.777 44.0394C115.626 43.4341 115.475 42.9801 115.172 42.6774C114.869 42.2234 114.567 41.9208 114.113 41.7695C113.659 41.6181 113.205 41.4668 112.599 41.6181C112.145 41.6181 111.691 41.9208 111.237 42.2234C110.935 42.5261 110.632 42.9801 110.481 43.4341C110.329 43.8881 110.329 44.3421 110.329 44.9474C110.481 45.5527 110.632 46.0067 110.935 46.3094C111.237 46.7634 111.54 47.0661 111.994 47.2174C112.448 47.3687 112.902 47.5201 113.356 47.3687C113.81 47.3687 114.264 47.0661 114.718 46.7634C115.021 46.4607 115.323 46.0067 115.475 45.5527C115.777 45.0988 115.777 44.4934 115.777 44.0394ZM108.211 45.0987C108.059 44.3421 107.757 43.8881 107.303 43.4341C106.697 42.9801 106.092 42.8288 105.487 42.9801C104.73 43.1314 104.276 43.4341 103.822 43.8881C103.519 44.4934 103.368 45.0988 103.368 45.7041C103.519 46.4607 103.822 46.9147 104.276 47.3687C104.73 47.8227 105.335 47.9741 106.092 47.8227C106.546 47.8227 107 47.5201 107.303 47.3687C107.605 47.0661 107.908 46.7634 108.059 46.3094C108.211 46.0067 108.211 45.5527 108.211 45.0987Z" fill="#0B0B0B"/>
<path d="M118.198 95.9424L117.139 98.0611C116.534 97.7584 116.08 97.4557 115.474 97.3044C114.869 97.0017 114.415 96.8504 113.961 96.5477C113.507 96.2451 113.053 96.0937 112.599 95.7911C112.145 95.6397 111.842 95.3371 111.388 95.1858L111.237 95.3371C111.388 95.4884 111.388 95.6397 111.54 95.9424C111.691 96.2451 111.691 96.5477 111.691 96.8504C111.842 97.6071 111.691 98.515 111.388 99.2717C111.086 100.028 110.48 100.785 109.875 101.39C109.118 101.996 108.362 102.298 107.302 102.45C106.243 102.601 105.335 102.45 104.427 102.147C103.519 101.693 102.762 101.239 102.308 100.482C101.703 99.7257 101.4 98.8177 101.249 97.9097C101.098 97.0017 101.249 96.2451 101.4 95.4884C101.552 94.7318 102.006 94.1264 102.46 93.5211C102.914 92.9158 103.368 92.6131 103.973 92.1591C104.578 91.8565 105.184 91.5538 105.94 91.5538C107 91.4025 107.908 91.5538 108.664 91.7051C109.572 92.0078 110.48 92.3104 111.388 92.7644C112.145 93.0671 112.75 93.3698 113.507 93.8238C114.264 94.1264 115.02 94.5804 115.777 94.8831C116.534 95.1857 117.29 95.6397 118.198 95.9424ZM109.572 96.3964C109.421 95.7911 109.27 95.3371 108.967 94.8831C108.664 94.4291 108.21 94.1264 107.756 93.9751C107.302 93.8238 106.697 93.8238 106.092 93.8238C105.486 93.9751 105.032 94.1264 104.578 94.4291C104.124 94.7318 103.822 95.1857 103.67 95.6397C103.519 96.0937 103.368 96.6991 103.519 97.1531C103.67 97.7584 103.822 98.2124 104.124 98.6664C104.427 99.1204 104.881 99.423 105.335 99.5744C105.789 99.7257 106.394 99.877 107 99.7257C107.605 99.5744 108.059 99.423 108.513 99.1204C108.967 98.8177 109.27 98.3637 109.421 97.9097C109.572 97.4557 109.724 97.0017 109.572 96.3964Z" fill="#0B0B0B"/>
<path d="M117.896 158.747L105.033 160.563L107.151 162.833L105.487 164.347L101.703 160.412L101.401 158.747L117.442 156.477L117.896 158.747ZM116.383 146.187C116.534 147.095 116.383 148.003 116.08 148.911C115.777 149.668 115.323 150.424 114.567 151.181C113.81 151.786 113.053 152.391 112.145 152.845C111.237 153.299 110.027 153.602 108.967 153.753C107.757 153.905 106.697 153.905 105.638 153.753C104.579 153.602 103.671 153.299 102.763 152.845C101.855 152.391 101.249 151.786 100.644 151.181C100.039 150.424 99.7361 149.668 99.5847 148.608C99.4334 147.7 99.5847 146.792 99.8874 145.884C100.19 144.976 100.644 144.22 101.401 143.614C102.157 143.009 102.914 142.404 103.822 141.95C104.73 141.496 105.941 141.193 107 141.042C108.211 140.89 109.27 140.89 110.329 141.042C111.389 141.193 112.297 141.496 113.205 141.95C113.961 142.404 114.718 143.009 115.323 143.766C115.929 144.371 116.383 145.128 116.383 146.187ZM114.113 146.49C113.961 145.733 113.659 144.976 113.053 144.522C112.448 144.068 111.691 143.614 110.632 143.463C109.724 143.312 108.665 143.312 107.454 143.463C106.243 143.614 105.335 143.917 104.427 144.371C103.519 144.825 102.914 145.279 102.46 146.036C102.006 146.641 101.855 147.398 102.006 148.154C102.157 148.911 102.46 149.516 103.065 150.121C103.671 150.575 104.427 151.029 105.487 151.181C106.395 151.332 107.454 151.332 108.665 151.181C109.875 151.029 110.783 150.727 111.691 150.273C112.599 149.819 113.205 149.214 113.659 148.608C114.113 148.003 114.264 147.246 114.113 146.49Z" fill="#0B0B0B"/>
<path d="M117.595 208.836L104.732 210.652L106.851 212.922L105.186 214.435L101.403 210.5L101.1 208.836L117.141 206.566L117.595 208.836ZM116.233 198.848L103.37 200.664L105.489 202.934L103.824 204.447L100.041 200.513L99.7382 198.848L115.779 196.578L116.233 198.848Z" fill="#0B0B0B"/>
<path d="M26.1922 228.361L27.5542 215.498L24.8302 217.011L23.7709 215.044L28.6135 212.32L30.2781 212.471L28.6135 228.664L26.1922 228.361ZM37.9961 229.874C37.2394 229.874 36.4827 229.572 35.8774 229.269C35.1207 228.815 34.5154 228.361 34.0614 227.604C33.6074 226.848 33.3048 226.091 33.1534 225.032L35.4234 224.427C35.5747 225.334 35.8774 225.94 36.3314 226.545C36.7854 227.15 37.5421 227.453 38.2987 227.604C39.2067 227.756 39.9634 227.453 40.5687 226.999C41.174 226.545 41.628 225.788 41.628 224.881C41.628 224.275 41.628 223.821 41.4767 223.216C41.3253 222.762 41.0227 222.308 40.5687 222.005C40.1147 221.703 39.6607 221.551 39.0554 221.4C38.6014 221.4 37.9961 221.4 37.5421 221.551C37.0881 221.703 36.6341 222.005 36.3314 222.308L34.0614 221.097L35.8774 212.925L44.2006 213.833L44.0493 216.103L37.6934 215.498L36.6341 220.038H36.7854C37.0881 219.735 37.5421 219.584 37.9961 219.433C38.45 219.281 39.0554 219.281 39.6607 219.281C40.5687 219.433 41.3253 219.735 42.082 220.189C42.8387 220.643 43.2927 221.4 43.7467 222.308C44.2006 223.216 44.2006 224.124 44.2006 225.183C44.0493 226.242 43.7467 227.15 43.2927 227.907C42.6873 228.664 42.082 229.269 41.174 229.572C39.9634 229.874 39.0554 230.026 37.9961 229.874Z" fill="#0B0B0B"/>
<path d="M315.688 335.657L292.232 309.325C291.778 291.468 313.721 289.198 322.196 289.803C326.282 278.604 349.587 273.762 357.153 274.367C372.589 260.142 389.084 263.32 395.44 266.801L418.896 293.132L315.688 335.657Z" fill="url(#paint0_linear_1_71)" stroke="#0B0B0B" stroke-width="1.51332"/>
<g filter="url(#filter0_dnf_1_71)">
<path d="M313.116 308.261C316.459 308.261 319.169 305.551 319.169 302.208C319.169 298.865 316.459 296.154 313.116 296.154C309.773 296.154 307.063 298.865 307.063 302.208C307.063 305.551 309.773 308.261 313.116 308.261Z" fill="white"/>
</g>
<g filter="url(#filter1_dnf_1_71)">
<path d="M378.489 280.264C381.832 280.264 384.542 277.554 384.542 274.211C384.542 270.868 381.832 268.158 378.489 268.158C375.146 268.158 372.436 270.868 372.436 274.211C372.436 277.554 375.146 280.264 378.489 280.264Z" fill="white"/>
</g>
<path d="M347.167 294.191L359.425 287.987C363.208 286.171 367.597 287.684 369.564 291.316C371.38 295.099 369.867 299.488 366.235 301.455L353.977 307.66C350.194 309.476 345.805 307.963 343.838 304.331C341.87 300.547 343.384 296.007 347.167 294.191Z" fill="#FABF09" stroke="white" stroke-width="0.756658"/>
</g>
<defs>
<filter id="filter0_dnf_1_71" x="303.063" y="292.154" width="20.1065" height="20.1065" filterUnits="userSpaceOnUse" color-interpolation-filters="sRGB">
<feFlood flood-opacity="0" result="BackgroundImageFix"/>
<feColorMatrix in="SourceAlpha" type="matrix" values="0 0 0 0 0 0 0 0 0 0 0 0 0 0 0 0 0 0 127 0" result="hardAlpha"/>
<feOffset/>
<feGaussianBlur stdDeviation="2"/>
<feComposite in2="hardAlpha" operator="out"/>
<feColorMatrix type="matrix" values="0 0 0 0 1 0 0 0 0 1 0 0 0 0 1 0 0 0 0.25 0"/>
<feBlend mode="normal" in2="BackgroundImageFix" result="effect1_dropShadow_1_71"/>
<feBlend mode="normal" in="SourceGraphic" in2="BackgroundImageFix" result="shape"/>
<feTurbulence type="fractalNoise" baseFrequency="2 2" stitchTiles="stitch" numOctaves="3" result="noise" seed="4114" />
<feColorMatrix in="noise" type="luminanceToAlpha" result="alphaNoise" />
<feComponentTransfer in="alphaNoise" result="coloredNoise1">
<feFuncA type="discrete" tableValues="1 1 1 1 1 1 1 1 1 1 1 1 1 1 1 1 1 1 1 1 1 1 1 1 1 1 1 1 1 1 1 1 1 1 1 1 1 1 1 1 1 1 1 1 1 1 1 1 1 1 1 0 0 0 0 0 0 0 0 0 0 0 0 0 0 0 0 0 0 0 0 0 0 0 0 0 0 0 0 0 0 0 0 0 0 0 0 0 0 0 0 0 0 0 0 0 0 0 0 0 "/>
</feComponentTransfer>
<feComposite operator="in" in2="shape" in="coloredNoise1" result="noise1Clipped" />
<feFlood flood-color="rgba(0, 0, 0, 0.15)" result="color1Flood" />
<feComposite operator="in" in2="noise1Clipped" in="color1Flood" result="color1" />
<feMerge result="effect2_noise_1_71">
<feMergeNode in="shape" />
<feMergeNode in="color1" />
</feMerge>
<feBlend mode="normal" in="effect2_noise_1_71" in2="effect1_dropShadow_1_71" result="effect2_noise_1_71"/>
<feGaussianBlur stdDeviation="0.25" result="effect3_foregroundBlur_1_71"/>
</filter>
<filter id="filter1_dnf_1_71" x="368.436" y="264.158" width="20.1065" height="20.1065" filterUnits="userSpaceOnUse" color-interpolation-filters="sRGB">
<feFlood flood-opacity="0" result="BackgroundImageFix"/>
<feColorMatrix in="SourceAlpha" type="matrix" values="0 0 0 0 0 0 0 0 0 0 0 0 0 0 0 0 0 0 127 0" result="hardAlpha"/>
<feOffset/>
<feGaussianBlur stdDeviation="2"/>
<feComposite in2="hardAlpha" operator="out"/>
<feColorMatrix type="matrix" values="0 0 0 0 1 0 0 0 0 1 0 0 0 0 1 0 0 0 0.25 0"/>
<feBlend mode="normal" in2="BackgroundImageFix" result="effect1_dropShadow_1_71"/>
<feBlend mode="normal" in="SourceGraphic" in2="BackgroundImageFix" result="shape"/>
<feTurbulence type="fractalNoise" baseFrequency="2 2" stitchTiles="stitch" numOctaves="3" result="noise" seed="4114" />
<feColorMatrix in="noise" type="luminanceToAlpha" result="alphaNoise" />
<feComponentTransfer in="alphaNoise" result="coloredNoise1">
<feFuncA type="discrete" tableValues="1 1 1 1 1 1 1 1 1 1 1 1 1 1 1 1 1 1 1 1 1 1 1 1 1 1 1 1 1 1 1 1 1 1 1 1 1 1 1 1 1 1 1 1 1 1 1 1 1 1 1 0 0 0 0 0 0 0 0 0 0 0 0 0 0 0 0 0 0 0 0 0 0 0 0 0 0 0 0 0 0 0 0 0 0 0 0 0 0 0 0 0 0 0 0 0 0 0 0 0 "/>
</feComponentTransfer>
<feComposite operator="in" in2="shape" in="coloredNoise1" result="noise1Clipped" />
<feFlood flood-color="rgba(0, 0, 0, 0.15)" result="color1Flood" />
<feComposite operator="in" in2="noise1Clipped" in="color1Flood" result="color1" />
<feMerge result="effect2_noise_1_71">
<feMergeNode in="shape" />
<feMergeNode in="color1" />
</feMerge>
<feBlend mode="normal" in="effect2_noise_1_71" in2="effect1_dropShadow_1_71" result="effect2_noise_1_71"/>
<feGaussianBlur stdDeviation="0.25" result="effect3_foregroundBlur_1_71"/>
</filter>
<linearGradient id="paint0_linear_1_71" x1="345.369" y1="274.995" x2="364.468" y2="323.874" gradientUnits="userSpaceOnUse">
<stop/>
<stop offset="0.698" stop-color="#333333"/>
<stop offset="0.8011" stop-color="white"/>
<stop offset="1" stop-color="white"/>
</linearGradient>
<clipPath id="clip0_1_71">
<rect width="438.559" height="337.621" fill="white" transform="translate(-18)"/>
</clipPath>
</defs>
</svg>
